<svg xmlns="http://www.w3.org/2000/svg" xmlns:xlink="http://www.w3.org/1999/xlink" width="244pt" height="61pt" viewBox="0.00 0.00 243.99 61.50">
<g id="graph0" class="graph" transform="scale(1 1) rotate(0) translate(4 57.5)">
<title>dfa</title>
<polygon fill="white" stroke="transparent" points="-4,4 -4,-57.5 239.99,-57.5 239.99,4 -4,4"/>
<g id="node1" class="node">
<title/>
</g>
<!-- q0 -->
<g id="node3" class="node">
<title>q0</title>
<ellipse fill="none" stroke="black" cx="113.75" cy="-26.75" rx="23" ry="23"/>
<text text-anchor="middle" x="113.75" y="-23.05" font-family="Times,serif" font-size="14.00">q0</text>
</g>
<!-- &#45;&gt;q0 -->
<g id="edge1" class="edge">
<title>-&gt;q0</title>
<path fill="none" stroke="black" d="M54.35,-26.75C62.71,-26.75 72.05,-26.75 80.76,-26.75"/>
<polygon fill="black" stroke="black" points="80.97,-30.25 90.97,-26.75 80.97,-23.25 80.97,-30.25"/>
</g>
<!-- q1 -->
<g id="node2" class="node">
<title>q1</title>
<ellipse fill="none" stroke="black" cx="209.24" cy="-26.75" rx="22.96" ry="22.96"/>
<ellipse fill="none" stroke="black" cx="209.24" cy="-26.75" rx="27" ry="27"/>
<text text-anchor="middle" x="209.24" y="-23.05" font-family="Times,serif" font-size="14.00">q1</text>
</g>
<!-- q1&#45;&gt;q0 -->
<g id="edge3" class="edge">
<title>q1-&gt;q0</title>
<path fill="none" stroke="black" d="M186.1,-12.91C176.53,-8.51 165.11,-5.34 154.5,-7.75 150.77,-8.59 146.99,-9.83 143.31,-11.28"/>
<polygon fill="black" stroke="black" points="141.64,-8.19 133.93,-15.46 144.49,-14.58 141.64,-8.19"/>
<text text-anchor="middle" x="159.5" y="-11.55" font-family="Times,serif" font-size="14.00">b</text>
</g>
<!-- q0&#45;&gt;q1 -->
<g id="edge2" class="edge">
<title>q0-&gt;q1</title>
<path fill="none" stroke="black" d="M136.91,-26.75C147.43,-26.75 160.28,-26.75 172.16,-26.75"/>
<polygon fill="black" stroke="black" points="172.27,-30.25 182.27,-26.75 172.27,-23.25 172.27,-30.25"/>
<text text-anchor="middle" x="159.5" y="-30.55" font-family="Times,serif" font-size="14.00">a</text>
</g>
</g>
</svg>