<svg xmlns="http://www.w3.org/2000/svg" xmlns:xlink="http://www.w3.org/1999/xlink" width="252pt" height="94pt" viewBox="0.00 0.00 251.99 94.50">
<g id="graph0" class="graph" transform="scale(1 1) rotate(0) translate(4 90.5)">
<title>dfa</title>
<polygon fill="white" stroke="transparent" points="-4,4 -4,-90.5 247.99,-90.5 247.99,4 -4,4"/>
<g id="node1" class="node">
<title/>
</g>
<!-- q0 -->
<g id="node3" class="node">
<title>q0</title>
<ellipse fill="none" stroke="black" cx="117.75" cy="-26.75" rx="22.96" ry="22.96"/>
<ellipse fill="none" stroke="black" cx="117.75" cy="-26.75" rx="27" ry="27"/>
<text text-anchor="middle" x="117.75" y="-23.05" font-family="Times,serif" font-size="14.00">q0</text>
</g>
<!-- &#45;&gt;q0 -->
<g id="edge1" class="edge">
<title>-&gt;q0</title>
<path fill="none" stroke="black" d="M54.15,-26.75C62.45,-26.75 71.79,-26.75 80.67,-26.75"/>
<polygon fill="black" stroke="black" points="80.79,-30.25 90.79,-26.75 80.79,-23.25 80.79,-30.25"/>
</g>
<!-- q1 -->
<g id="node2" class="node">
<title>q1</title>
<ellipse fill="none" stroke="black" cx="217.24" cy="-26.75" rx="22.96" ry="22.96"/>
<ellipse fill="none" stroke="black" cx="217.24" cy="-26.75" rx="27" ry="27"/>
<text text-anchor="middle" x="217.24" y="-23.05" font-family="Times,serif" font-size="14.00">q1</text>
</g>
<!-- q1&#45;&gt;q1 -->
<g id="edge5" class="edge">
<title>q1-&gt;q1</title>
<path fill="none" stroke="black" d="M208.32,-52.05C207.71,-62.57 210.68,-71.5 217.24,-71.5 221.55,-71.5 224.31,-67.65 225.53,-62.04"/>
<polygon fill="black" stroke="black" points="229.02,-62.25 226.16,-52.05 222.03,-61.81 229.02,-62.25"/>
<text text-anchor="middle" x="217.24" y="-75.3" font-family="Times,serif" font-size="14.00">b</text>
</g>
<!-- q1&#45;&gt;q0 -->
<g id="edge4" class="edge">
<title>q1-&gt;q0</title>
<path fill="none" stroke="black" d="M194.14,-13.1C184.58,-8.73 173.16,-5.53 162.5,-7.75 158.79,-8.52 155.02,-9.62 151.31,-10.91"/>
<polygon fill="black" stroke="black" points="149.8,-7.74 141.78,-14.66 152.36,-14.25 149.8,-7.74"/>
<text text-anchor="middle" x="167.5" y="-11.55" font-family="Times,serif" font-size="14.00">a</text>
</g>
<!-- q0&#45;&gt;q1 -->
<g id="edge3" class="edge">
<title>q0-&gt;q1</title>
<path fill="none" stroke="black" d="M144.62,-26.75C155.53,-26.75 168.41,-26.75 180.22,-26.75"/>
<polygon fill="black" stroke="black" points="180.25,-30.25 190.25,-26.75 180.25,-23.25 180.25,-30.25"/>
<text text-anchor="middle" x="167.5" y="-30.55" font-family="Times,serif" font-size="14.00">b</text>
</g>
<!-- q0&#45;&gt;q0 -->
<g id="edge2" class="edge">
<title>q0-&gt;q0</title>
<path fill="none" stroke="black" d="M109.55,-52.5C109.09,-62.83 111.82,-71.5 117.75,-71.5 121.55,-71.5 124.03,-67.94 125.21,-62.67"/>
<polygon fill="black" stroke="black" points="128.71,-62.73 125.95,-52.5 121.73,-62.22 128.71,-62.73"/>
<text text-anchor="middle" x="117.75" y="-75.3" font-family="Times,serif" font-size="14.00">a</text>
</g>
</g>
</svg>