<svg xmlns="http://www.w3.org/2000/svg" xmlns:xlink="http://www.w3.org/1999/xlink" width="225pt" height="54pt" viewBox="0.00 0.00 224.80 53.53">
<g id="graph0" class="graph" transform="scale(1 1) rotate(0) translate(4 49.53)">
<title>dfa</title>
<polygon fill="white" stroke="none" points="-4,4 -4,-49.53 220.8,-49.53 220.8,4 -4,4"/>
<g id="node1" class="node">
<title/>
</g>
<!-- q0 -->
<g id="node3" class="node">
<title>q0</title>
<ellipse fill="none" stroke="black" cx="109.76" cy="-22.76" rx="18.76" ry="18.76"/>
<text text-anchor="middle" x="109.76" y="-16.59" font-family="Times,serif" font-size="14.00">q0</text>
</g>
<!-- &#45;&gt;q0 -->
<g id="edge1" class="edge">
<title>-&gt;q0</title>
<path fill="none" stroke="black" d="M54,-22.76C62.05,-22.76 70.99,-22.76 79.26,-22.76"/>
<polygon fill="black" stroke="black" points="79.22,-26.26 89.22,-22.76 79.22,-19.26 79.22,-26.26"/>
</g>
<!-- q1 -->
<g id="node2" class="node">
<title>q1</title>
<ellipse fill="none" stroke="black" cx="194.04" cy="-22.76" rx="18.76" ry="18.76"/>
<ellipse fill="none" stroke="black" cx="194.04" cy="-22.76" rx="22.76" ry="22.76"/>
<text text-anchor="middle" x="194.04" y="-16.59" font-family="Times,serif" font-size="14.00">q1</text>
</g>
<!-- q1&#45;&gt;q0 -->
<g id="edge3" class="edge">
<title>q1-&gt;q0</title>
<path fill="none" stroke="black" d="M174.86,-10.01C166.42,-5.57 156.14,-2.2 146.53,-4.51 143.11,-5.33 139.66,-6.54 136.31,-7.94"/>
<polygon fill="black" stroke="black" points="134.97,-4.7 127.52,-12.23 138.04,-10.99 134.97,-4.7"/>
<text text-anchor="middle" x="149.9" y="-5.71" font-family="Times,serif" font-size="14.00">b</text>
</g>
<!-- q0&#45;&gt;q1 -->
<g id="edge2" class="edge">
<title>q0-&gt;q1</title>
<path fill="none" stroke="black" d="M129.02,-22.76C138.03,-22.76 149.19,-22.76 159.66,-22.76"/>
<polygon fill="black" stroke="black" points="159.51,-26.26 169.51,-22.76 159.51,-19.26 159.51,-26.26"/>
<text text-anchor="middle" x="149.9" y="-23.71" font-family="Times,serif" font-size="14.00">a</text>
</g>
</g>
</svg>