<svg xmlns="http://www.w3.org/2000/svg" xmlns:xlink="http://www.w3.org/1999/xlink" width="405pt" height="82pt" viewBox="0.00 0.00 404.85 81.78">
<g id="graph0" class="graph" transform="scale(1 1) rotate(0) translate(4 77.78)">
<title>dfa</title>
<polygon fill="white" stroke="none" points="-4,4 -4,-77.78 400.85,-77.78 400.85,4 -4,4"/>
<g id="node1" class="node">
<title/>
</g>
<!-- q0 -->
<g id="node5" class="node">
<title>q0</title>
<ellipse fill="none" stroke="black" cx="109.76" cy="-22.76" rx="18.76" ry="18.76"/>
<text text-anchor="middle" x="109.76" y="-16.59" font-family="Times,serif" font-size="14.00">q0</text>
</g>
<!-- &#45;&gt;q0 -->
<g id="edge1" class="edge">
<title>-&gt;q0</title>
<path fill="none" stroke="black" d="M54,-22.76C62.05,-22.76 70.99,-22.76 79.26,-22.76"/>
<polygon fill="black" stroke="black" points="79.22,-26.26 89.22,-22.76 79.22,-19.26 79.22,-26.26"/>
</g>
<!-- q3 -->
<g id="node2" class="node">
<title>q3</title>
<ellipse fill="none" stroke="black" cx="374.09" cy="-22.76" rx="18.76" ry="18.76"/>
<ellipse fill="none" stroke="black" cx="374.09" cy="-22.76" rx="22.76" ry="22.76"/>
<text text-anchor="middle" x="374.09" y="-16.59" font-family="Times,serif" font-size="14.00">q3</text>
</g>
<!-- q2 -->
<g id="node3" class="node">
<title>q2</title>
<ellipse fill="none" stroke="black" cx="280.06" cy="-22.76" rx="18.76" ry="18.76"/>
<text text-anchor="middle" x="280.06" y="-16.59" font-family="Times,serif" font-size="14.00">q2</text>
</g>
<!-- q2&#45;&gt;q3 -->
<g id="edge5" class="edge">
<title>q2-&gt;q3</title>
<path fill="none" stroke="black" d="M299.24,-22.76C310.75,-22.76 325.98,-22.76 339.61,-22.76"/>
<polygon fill="black" stroke="black" points="339.54,-26.26 349.54,-22.76 339.54,-19.26 339.54,-26.26"/>
<text text-anchor="middle" x="325.08" y="-23.71" font-family="Times,serif" font-size="14.00">a,b</text>
</g>
<!-- q1 -->
<g id="node4" class="node">
<title>q1</title>
<ellipse fill="none" stroke="black" cx="190.04" cy="-22.76" rx="18.76" ry="18.76"/>
<text text-anchor="middle" x="190.04" y="-16.59" font-family="Times,serif" font-size="14.00">q1</text>
</g>
<!-- q1&#45;&gt;q2 -->
<g id="edge4" class="edge">
<title>q1-&gt;q2</title>
<path fill="none" stroke="black" d="M209.28,-22.76C220.84,-22.76 236.08,-22.76 249.36,-22.76"/>
<polygon fill="black" stroke="black" points="249.33,-26.26 259.33,-22.76 249.33,-19.26 249.33,-26.26"/>
<text text-anchor="middle" x="235.05" y="-23.71" font-family="Times,serif" font-size="14.00">a,b</text>
</g>
<!-- q0&#45;&gt;q1 -->
<g id="edge3" class="edge">
<title>q0-&gt;q1</title>
<path fill="none" stroke="black" d="M128.92,-22.76C138.01,-22.76 149.24,-22.76 159.53,-22.76"/>
<polygon fill="black" stroke="black" points="159.47,-26.26 169.47,-22.76 159.47,-19.26 159.47,-26.26"/>
<text text-anchor="middle" x="149.9" y="-23.71" font-family="Times,serif" font-size="14.00">b</text>
</g>
<!-- q0&#45;&gt;q0 -->
<g id="edge2" class="edge">
<title>q0-&gt;q0</title>
<path fill="none" stroke="black" d="M103.11,-40.54C101.87,-50.42 104.09,-59.53 109.76,-59.53 113.04,-59.53 115.17,-56.48 116.14,-52.01"/>
<polygon fill="black" stroke="black" points="119.64,-52.14 116.38,-42.05 112.64,-51.97 119.64,-52.14"/>
<text text-anchor="middle" x="109.76" y="-60.48" font-family="Times,serif" font-size="14.00">a,b</text>
</g>
</g>
</svg>